<?xml version="1.0" encoding="UTF-8"?><svg id="c" xmlns="http://www.w3.org/2000/svg" viewBox="0 0 90.86 129.02"><path d="M31.73,39.99c0,1.21-.03,2.38-.1,3.52-3.47,0-7.53-.19-13.14-.67-4.18-.35-10.39-2.24-16.29-4.76v-19.43h23.35c3.64,6.53,6.18,12.74,6.18,21.34Z" fill="#906"/><path d="M56.3,41.55c-1.42.12-2.92.25-4.53.39-2.63.24-4.89.47-6.94.69-.12.01-.24.02-.35.03.03-.87.05-1.76.05-2.67,0-8.54-1.88-15.27-4.63-21.34h13c.54,8.25,1.97,15.57,3.36,22.69.01.07.03.14.04.21Z" fill="#906"/><path d="M88.36,18.65v17.34c-9.18,3.05-13.96,3.9-22.73,4.73-.08-.39-.15-.77-.23-1.16-1.36-6.92-2.65-13.55-3.17-20.91h26.13Z" fill="#906"/><path d="M88.37,60.71c-4.51-.72-9.94-.92-18.34-.92-.49,0-.97,0-1.45.02-.38-4.27-.98-8.3-1.66-12.2,8.17-.79,13.14-1.63,21.44-4.28v17.38Z" fill="#906"/><path d="M59.28,60.39c-6.74.74-12.72,2.11-18.46,3.56,1.31-4.38,2.44-9.02,3.1-14.21.53-.06,1.07-.11,1.63-.17,2.03-.21,4.25-.44,6.84-.67,1.88-.17,3.61-.32,5.22-.46.7,3.9,1.3,7.82,1.67,11.95Z" fill="#906"/><path d="M88.37,78.54v21.62h-27.79c4.97-7.17,7.31-13.95,8.1-22.9.44-.02.9-.02,1.35-.02,9.7,0,14,.08,18.34,1.3Z" fill="#906"/><path d="M59.25,77.98c-1.01,8.55-3.92,14.55-10.44,22.18h-16.3s-.01-.04-.01-.06c.01-6.22.89-11.54,2.17-16.55,2.22-.54,4.4-1.11,6.56-1.67,5.96-1.56,11.7-3.05,18.02-3.9Z" fill="#906"/><path d="M20.98,86.2c-.78,4.24-1.28,8.83-1.28,13.96H2.21v-13.16c1.73.05,3.65.07,5.83.07,4.65,0,8.93-.33,12.94-.87Z" fill="#906"/><path d="M30.86,50.49c-1,6.11-2.78,11.51-4.65,17.08-5.61,1.2-11.45,2.04-18.17,2.04-2.35,0-4.22,0-5.83-.05v-23.97c5.9,2.3,11.7,3.87,15.68,4.21,5.4.47,9.49.67,12.97.69Z" fill="#906"/><path d="M27.58,128.27h6.33l-2.22-21.98h-7.47l-2.92,7.96c-.46,1.38-.89,2.71-1.28,3.97-.39,1.27-.72,2.51-.99,3.73h-.16c-.33-1.23-.71-2.48-1.15-3.74s-.9-2.58-1.39-3.96l-2.92-7.96h-7.52l-2.6,21.98h6.06l.65-7.63c.09-1.11.18-2.31.29-3.6.11-1.28.19-2.53.25-3.74h.11c.31,1.22.68,2.44,1.1,3.67s.81,2.3,1.18,3.21l3.03,7.73h4.98l3.19-7.86c.36-.88.76-1.92,1.18-3.13.43-1.21.81-2.42,1.14-3.62h.11c-.02,1.21,0,2.46.09,3.75s.18,2.46.29,3.53l.65,7.7Z" fill="#906" fill-rule="evenodd"/><path d="M47.79,109.8c.22-.05.48-.09.79-.12.3-.03.62-.04.95-.04,1.64.02,2.82.35,3.54.99s1.08,1.45,1.06,2.44c0,1.05-.4,1.91-1.23,2.57-.83.66-2.14,1-3.92,1.02-.22,0-.42,0-.62,0-.2,0-.39-.01-.58-.03v-6.82ZM40.7,128.27h7.08v-8.19c.24.02.48.03.7.03.23,0,.46,0,.7,0,1.53,0,3.1-.17,4.7-.51,1.6-.34,3-.88,4.17-1.61.96-.6,1.71-1.33,2.25-2.2.54-.87.82-1.9.83-3.08,0-.94-.25-1.83-.76-2.67-.51-.84-1.3-1.56-2.38-2.16-1.17-.64-2.58-1.09-4.24-1.34s-3.55-.37-5.67-.36c-1.37,0-2.69.04-3.97.11-1.28.07-2.43.18-3.44.31v21.66Z" fill="#906" fill-rule="evenodd"/><path d="M77,124.82c-1.56-.04-2.7-.77-3.41-2.18-.71-1.41-1.04-3.23-.98-5.46-.02-1.35.12-2.58.42-3.7.3-1.12.77-2.02,1.43-2.7.65-.68,1.5-1.03,2.55-1.04,1.08.02,1.92.37,2.54,1.04.62.67,1.06,1.57,1.31,2.67.26,1.11.38,2.32.37,3.63.02,2.28-.3,4.13-.95,5.54-.65,1.42-1.72,2.15-3.22,2.19h-.05ZM76.84,128.53c3.5.03,6.31-.87,8.45-2.71,2.14-1.84,3.23-4.82,3.29-8.93.02-1.72-.3-3.4-.97-5.05-.67-1.65-1.83-3.02-3.47-4.11s-3.92-1.66-6.81-1.7c-2.71.03-4.95.55-6.74,1.57-1.79,1.02-3.12,2.37-4.01,4.05-.88,1.68-1.33,3.54-1.32,5.57-.01,2.04.37,3.91,1.15,5.62.78,1.7,2.01,3.07,3.71,4.11,1.7,1.03,3.92,1.57,6.67,1.59h.05Z" fill="#906" fill-rule="evenodd"/><path d="M7.27,11.3c-.11.05-.25.09-.4.12-.15.04-.31.05-.46.06-.56.01-1.02-.29-1.38-.92-.36-.62-.54-1.65-.55-3.07.02-1.47.21-2.53.59-3.17.38-.64.82-.96,1.35-.94.2,0,.36.02.49.07.13.04.25.1.35.16l.3-1.96c-.09-.08-.24-.15-.45-.21-.21-.07-.48-.1-.79-.11-.61,0-1.2.2-1.77.62-.57.42-1.03,1.1-1.4,2.02-.37.92-.56,2.14-.57,3.64,0,1.15.12,2.17.38,3.05.25.89.64,1.58,1.16,2.09.52.51,1.17.76,1.96.77.31,0,.59-.03.83-.08.24-.05.43-.12.56-.2l-.18-1.95Z" fill="#906" fill-rule="evenodd"/><polygon points="13.83 6.22 11.73 6.22 11.73 3.46 13.96 3.46 13.96 1.44 9.94 1.44 9.93 13.42 14.1 13.42 14.1 11.39 11.72 11.4 11.73 8.16 13.83 8.15 13.83 6.22" fill="#906" fill-rule="evenodd"/><path d="M18.42,13.41v-2.7c0-1.2-.01-2.26-.04-3.18-.02-.92-.05-1.68-.08-2.28h.03c.12.55.26,1.16.44,1.82.18.66.34,1.25.51,1.77l1.41,4.57h1.65s.01-11.99.01-11.99h-1.58s0,2.65,0,2.65c0,1.12.02,2.16.07,3.13.04.97.08,1.78.11,2.41h-.03c-.14-.54-.3-1.14-.48-1.79-.19-.65-.35-1.22-.5-1.7l-1.43-4.71h-1.65s-.01,11.99-.01,11.99h1.58Z" fill="#906" fill-rule="evenodd"/><polygon points="26.44 13.4 28.23 13.4 28.24 3.56 29.89 3.56 29.89 1.41 24.81 1.42 24.81 3.57 26.45 3.57 26.44 13.4" fill="#906" fill-rule="evenodd"/><path d="M34.13,3.24s.11-.04.19-.06c.08-.01.16-.02.25-.02.4.02.68.2.86.51.17.32.26.74.26,1.26,0,.54-.11.98-.32,1.33-.21.35-.51.53-.91.54h-.33s0-3.58,0-3.58ZM32.32,13.39h1.8s0-4.79,0-4.79h.27c.29-.01.52.12.68.4.16.28.28.78.36,1.5.07.68.15,1.29.24,1.81.09.53.16.88.23,1.07h1.88c-.09-.25-.18-.68-.29-1.3-.11-.62-.21-1.27-.3-1.96-.08-.65-.22-1.16-.39-1.55-.18-.39-.42-.66-.73-.83v-.04c.47-.29.82-.69,1.06-1.22s.36-1.12.37-1.77c0-.51-.05-.98-.16-1.39-.11-.41-.3-.78-.58-1.1-.3-.35-.66-.58-1.09-.71s-.89-.18-1.39-.18c-.35,0-.69.02-1.03.06-.34.04-.65.1-.93.17v11.81Z" fill="#906" fill-rule="evenodd"/><path d="M41.92,8.83l.35-2.51c.05-.37.11-.81.17-1.32s.12-.98.17-1.4h.04c.04.41.09.87.14,1.38.05.51.11.96.15,1.34l.3,2.51h-1.32ZM43.41,10.64l.38,2.74h1.76s-1.79-11.98-1.79-11.98h-2.16s-2.02,11.99-2.02,11.99h1.74s.41-2.74.41-2.74h1.66Z" fill="#906" fill-rule="evenodd"/><polygon points="48.07 13.37 52.23 13.36 52.23 11.39 49.87 11.4 49.88 1.38 48.08 1.39 48.07 13.37" fill="#906" fill-rule="evenodd"/><polygon points="61.16 13.35 65.31 13.35 65.32 11.37 62.95 11.38 62.96 1.37 61.17 1.37 61.16 13.35" fill="#906" fill-rule="evenodd"/><path d="M69.62,8.79l.35-2.51c.05-.37.11-.81.17-1.32s.12-.98.17-1.4h.04c.04.41.09.87.14,1.38.05.51.11.96.16,1.34l.3,2.51h-1.32ZM71.1,10.6l.38,2.74h1.76s-1.79-11.98-1.79-11.98h-2.16s-2.02,11.99-2.02,11.99h1.74s.41-2.74.41-2.74h1.66Z" fill="#906" fill-rule="evenodd"/><path d="M77.35,13.33v-2.7c0-1.2-.01-2.26-.04-3.18-.02-.92-.05-1.68-.08-2.28h.03c.12.55.26,1.16.44,1.82.18.66.35,1.25.51,1.77l1.41,4.57h1.65s.01-11.99.01-11.99h-1.58s0,2.65,0,2.65c0,1.12.02,2.16.07,3.13.04.97.08,1.78.11,2.41h-.03c-.14-.54-.3-1.14-.48-1.79-.19-.65-.35-1.22-.5-1.7l-1.43-4.71h-1.65s-.01,11.99-.01,11.99h1.58Z" fill="#906" fill-rule="evenodd"/><polygon points="88.26 6.11 86.16 6.12 86.17 3.36 88.39 3.36 88.39 1.33 84.37 1.34 84.36 13.32 88.53 13.31 88.53 11.29 86.16 11.29 86.16 8.05 88.26 8.05 88.26 6.11" fill="#906" fill-rule="evenodd"/></svg>